<?xml version="1.0" encoding="utf-8"?>
<!-- Generator: Adobe Illustrator 24.0.1, SVG Export Plug-In . SVG Version: 6.00 Build 0)  -->
<svg version="1.1" id="Calque_1" xmlns="http://www.w3.org/2000/svg" xmlns:xlink="http://www.w3.org/1999/xlink" x="0px" y="0px"
	 viewBox="0 0 100 52" style="enable-background:new 0 0 100 52;" xml:space="preserve">
<title>Vehicles</title>
<path d="M91.6,42.6l0.9-5.4l2.3-0.2c-0.1-2.8-0.1-5.6-1.7-8c-0.6-0.8-1.5-1.4-2.4-1.7c-2.5-1.1-5.2-1.9-7.8-2.6
	C76.2,23.1,70.2,20,64,17.3c-2.1-0.9-4.3-1.7-6.4-2.6c-3.3-1.3-6.8-2-10.4-2c-6.1-0.1-12.1,0.2-18.1,1c-0.9,0.1-1.7,0.4-2.5,0.8
	c-5.7,2.8-11.3,5.8-17.4,7.7c-1.1,0.3-1.9,1.2-2.2,2.3c-1.3,3.8-1.9,7.7-1.9,11.7c0,1,0.3,1.4,1.3,1.3c0.5,0,1,0,1.4,0.1l0.9,5.2
	c-0.9,0-2,0-3,0c-0.8,0-1.7-0.1-2.5-0.1c-1.7,0-2.7-0.7-2.9-2.5C0,37.6-0.1,35,0,32.4c0.3-3.7,1.1-7.2,2.4-10.7c0.6-1.9,2.1-3.4,4-4
	c6.5-2.2,12.5-5.3,18.6-8.2c1.9-0.7,3.9-1.2,5.9-1.3c6.6-0.7,13.2-0.9,19.9-0.5C54,8,57.1,8.8,60,10c3.3,1.3,6.7,2.7,9.9,4.2
	c5.3,2.5,10.8,4.5,16.4,6c1.9,0.5,3.8,1.3,5.6,1.9c4.5,1.5,6.9,4.8,7.5,9.4c0.3,2.6,0.4,5.2,0.5,7.8c0.1,1.3-0.8,2.5-2.1,2.6h-0.1
	C95.8,42.2,93.7,42.3,91.6,42.6z"/>
<path d="M21.5,27.7c5.5,0.1,9.9,4.5,9.8,10s-4.5,9.9-10,9.8s-9.9-4.5-9.8-10v-0.1C11.6,32,16.1,27.7,21.5,27.7L21.5,27.7z
	 M21.5,42.2c2.6,0.1,4.7-1.9,4.8-4.4s-1.9-4.7-4.4-4.8c-0.1,0-0.3,0-0.4,0c-2.6,0.1-4.5,2.3-4.4,4.8C17.2,40.2,19.1,42.1,21.5,42.2z
	"/>
<path d="M79,47.5c-5.5,0-9.9-4.4-9.9-9.9s4.4-9.9,9.9-9.9s9.9,4.4,9.9,9.9C88.9,43,84.6,47.5,79,47.5L79,47.5z M79,42.2
	c2.6-0.1,4.5-2.3,4.4-4.8c-0.1-2.4-2-4.3-4.4-4.4c-2.6-0.1-4.7,1.9-4.8,4.4s1.9,4.7,4.4,4.8C78.7,42.3,78.9,42.3,79,42.2z"/>
<path d="M34.1,42.6l1-5.1h30.3l1,5.1H34.1z"/>
</svg>
