<?xml version="1.0" encoding="utf-8"?>
<!-- Generator: Adobe Illustrator 24.0.1, SVG Export Plug-In . SVG Version: 6.00 Build 0)  -->
<svg version="1.1" id="Calque_1" xmlns="http://www.w3.org/2000/svg" xmlns:xlink="http://www.w3.org/1999/xlink" x="0px" y="0px"
	 viewBox="0 0 6.4 6.4" style="enable-background:new 0 0 6.4 6.4;" xml:space="preserve">
<g>
	<path d="M3.2,0.6L0.5,2.4v0.7l2.5-1.7c0.1,0,0.2,0,0.2,0l2.5,1.7V2.4L5.1,1.9C5.1,1.8,5,1.8,5,1.7v-1H4.6v0.5
		c0,0.1-0.1,0.2-0.2,0.2c0,0-0.1,0-0.1,0C4.3,1.3,3.2,0.6,3.2,0.6z M5.4,3.3v2.8c0,0.1-0.1,0.2-0.2,0.2H3.9c-0.1,0-0.2-0.1-0.2-0.2
		V4.7c0-0.1-0.1-0.3-0.1-0.3C3.4,4.3,3.3,4.2,3.2,4.2S2.9,4.3,2.9,4.4C2.8,4.5,2.7,4.6,2.7,4.7v1.4c0,0.1-0.1,0.2-0.2,0.2H1.1
		C1,6.3,0.9,6.2,0.9,6.1V3.3L0.4,3.6c0,0-0.1,0-0.1,0c-0.1,0-0.2-0.1-0.2-0.2V2.3c0-0.1,0-0.1,0.1-0.2l2.9-1.9c0.1,0,0.2-0.1,0.2,0
		l0.9,0.6V0.5c0-0.1,0.1-0.2,0.2-0.2h0.8c0.1,0,0.2,0.1,0.2,0.2v1.1l0.7,0.5c0.1,0,0.1,0.1,0.1,0.2v1.2c0,0,0,0.1,0,0.1
		C6.2,3.7,6,3.7,5.9,3.6C5.9,3.6,5.4,3.3,5.4,3.3z M1.4,3v2.8h1V4.7c0-0.2,0.1-0.5,0.3-0.6C2.7,3.9,3,3.8,3.2,3.8s0.5,0.1,0.6,0.3
		C4,4.2,4.1,4.5,4.1,4.7v1.2h1V3L3.2,1.8C3.2,1.8,1.4,3,1.4,3z"/>
</g>
</svg>
