<?xml version="1.0" encoding="utf-8"?>
<!-- Generator: Adobe Illustrator 24.0.1, SVG Export Plug-In . SVG Version: 6.00 Build 0)  -->
<svg version="1.1"
	 id="Calque_1" xmlns:cc="http://creativecommons.org/ns#" xmlns:dc="http://purl.org/dc/elements/1.1/" xmlns:inkscape="http://www.inkscape.org/namespaces/inkscape" xmlns:rdf="http://www.w3.org/1999/02/22-rdf-syntax-ns#" xmlns:sodipodi="http://sodipodi.sourceforge.net/DTD/sodipodi-0.dtd" xmlns:svg="http://www.w3.org/2000/svg"
	 xmlns="http://www.w3.org/2000/svg" xmlns:xlink="http://www.w3.org/1999/xlink" x="0px" y="0px" viewBox="0 0 100 63.2"
	 style="enable-background:new 0 0 100 63.2;" xml:space="preserve">
<g transform="translate(0,-952.36218)">
	<path d="M6,954.7c-1.7,0-3,1.3-3,3v52c0,1.7,1.3,3,3,3h88c1.7,0,3-1.3,3-3v-52c0-1.7-1.3-3-3-3H6z M14.4,960.7h71.1L50,989.8
		L14.4,960.7z M9,964l23,18.8L9,1003V964z M91,964v39l-23-20.2L91,964z M36.7,986.7l11.4,9.3c1.1,0.9,2.7,0.9,3.8,0l11.4-9.3
		l22.8,20H13.9L36.7,986.7z"/>
</g>
</svg>
