<?xml version="1.0" encoding="utf-8"?>
<!-- Generator: Adobe Illustrator 24.0.1, SVG Export Plug-In . SVG Version: 6.00 Build 0)  -->
<svg version="1.1" id="Calque_1" xmlns="http://www.w3.org/2000/svg" xmlns:xlink="http://www.w3.org/1999/xlink" x="0px" y="0px"
	 viewBox="0 0 100 88" style="enable-background:new 0 0 100 88;" xml:space="preserve">
<path d="M88.4,56.9l-20-7.5c-0.9-0.3-2-0.1-2.6,0.6l-6,6c-8.4-5.9-15.6-13.1-21.5-21.5l6-6c0.7-0.7,0.9-1.7,0.6-2.6l-7.5-20
	C37,4.8,36,4.2,35,4.2h-1.4c-6.2,0-12.1,2.4-16.5,6.8l0,0C12.5,15.6,10,21.8,10,28.3c0,4.3,1.1,8.6,3.3,12.3
	C23,57.2,37,71.2,53.6,80.9c3.7,2.2,8,3.3,12.3,3.3c6.5,0,12.7-2.5,17.3-7.2c4.4-4.4,6.8-10.2,6.8-16.5v-1.3
	C90,58.2,89.4,57.2,88.4,56.9z M79.7,73.5c-3.7,3.7-8.6,5.7-13.8,5.7c-3.4,0-6.8-0.9-9.8-2.6C40.2,67.3,26.9,54,17.6,38.1
	c-1.7-3-2.6-6.3-2.6-9.8c0-5.2,2-10.1,5.7-13.7l0,0c3.4-3.4,7.8-5.3,12.6-5.3l6.3,16.9l-6.4,6.4c-0.8,0.8-1,2.2-0.3,3.2
	C39.7,46,48.4,54.7,58.6,61.5c1,0.7,2.3,0.5,3.2-0.3l6.4-6.4L85,60.9C84.9,65.7,83,70.1,79.7,73.5z"/>
</svg>
